<?xml version="1.0" encoding="UTF-8"?>
<svg id="Layer_1" data-name="Layer 1" xmlns="http://www.w3.org/2000/svg" viewBox="0 0 367.19 200.24">
  <defs>
    <style>
      .cls-1, .cls-2 {
        fill: #feda3d;
      }

      .cls-2 {
        font-family: TimesNewRomanPSMT, 'Times New Roman';
        font-size: 85px;
      }

      .cls-3 {
        opacity: .5;
      }
    </style>
  </defs>
  <g class="cls-3">
    <g>
      <path class="cls-1" d="M12.22,188l-.42,1.78h-6.98l.42-1.78h6.98Z"/>
      <path class="cls-1" d="M27.67,193.14h-.08c-.17.14-.38.32-.61.53-.24.21-.52.42-.84.62-.3.2-.64.37-.99.51s-.75.22-1.17.22c-1.13,0-2.02-.41-2.66-1.22s-.97-1.92-.97-3.33c0-.97.18-1.91.54-2.83s.85-1.74,1.49-2.46c.6-.7,1.32-1.26,2.14-1.68.83-.43,1.68-.64,2.55-.64.55,0,1.08.07,1.59.22s.9.32,1.19.5l2.15-.55.14.18-1.79,7.57c-.06.24-.13.54-.19.89s-.1.6-.1.77c0,.45.09.75.28.9s.5.23.95.23c.15,0,.36-.02.63-.07s.49-.1.63-.15l-.18.75c-.7.28-1.23.48-1.57.61-.34.12-.76.19-1.26.19-.56,0-1.01-.16-1.34-.49s-.51-.75-.54-1.26h.01ZM29.35,185.73c0-.26-.03-.5-.08-.74s-.17-.45-.34-.66c-.16-.2-.37-.35-.65-.47-.27-.12-.62-.18-1.03-.18-.57,0-1.13.19-1.66.56-.54.38-1.02.88-1.45,1.51-.41.59-.74,1.31-1,2.16s-.39,1.7-.39,2.57c0,.48.03.9.08,1.27.05.37.16.7.32,1.01.15.3.36.53.64.69s.64.25,1.06.25.89-.12,1.37-.37c.48-.25,1.02-.68,1.62-1.3l1.5-6.31h.01Z"/>
      <path class="cls-1" d="M46.73,193.33l-.18.75c-.71.28-1.25.49-1.65.62-.39.13-.79.19-1.19.19-.63,0-1.1-.16-1.41-.49-.31-.32-.47-.72-.47-1.2,0-.17.02-.36.05-.57s.08-.45.15-.73l1.16-4.38c.09-.34.16-.64.21-.92.05-.27.08-.49.08-.66,0-.52-.12-.94-.37-1.24-.25-.31-.62-.46-1.1-.46s-1,.16-1.59.47-1.14.77-1.66,1.36l-2,8.61h-2.19l1.76-7.6c.04-.19.1-.46.17-.82s.11-.64.11-.86c0-.44-.07-.73-.22-.88-.15-.15-.45-.22-.89-.22-.17,0-.39.03-.66.09s-.48.11-.62.15l.18-.75c.61-.27,1.15-.48,1.63-.61s.88-.2,1.21-.2c.62,0,1.06.17,1.33.5.27.34.41.8.42,1.4h.07c.86-.69,1.6-1.2,2.22-1.53.62-.33,1.33-.5,2.12-.5s1.33.22,1.75.65.63,1,.63,1.71c0,.14-.02.39-.06.75s-.11.71-.21,1.07l-.99,3.77c-.07.25-.14.54-.21.86s-.1.58-.1.76c0,.45.1.75.29.91.2.16.52.24.96.24.15,0,.36-.03.64-.08s.49-.1.64-.16h-.01Z"/>
      <path class="cls-1" d="M59.67,193.41l-.18.75c-.72.29-1.29.49-1.72.6s-.8.17-1.1.17c-.62,0-1.09-.16-1.41-.49-.31-.32-.47-.72-.47-1.2,0-.18.02-.37.05-.56.03-.2.08-.44.15-.74l1.24-4.99c.06-.27.12-.57.18-.88s.09-.58.09-.8c0-.44-.07-.73-.22-.87-.14-.14-.44-.22-.88-.22-.17,0-.4.03-.68.08s-.5.1-.65.14l.18-.75c.61-.27,1.16-.48,1.64-.61s.87-.2,1.15-.2c.64,0,1.1.15,1.39.46.29.3.43.71.43,1.23,0,.14-.02.33-.05.58-.03.24-.08.48-.14.73l-1.25,4.99c-.08.3-.15.6-.2.9s-.09.53-.09.72c0,.45.1.75.3.92.2.16.52.25.96.25.15,0,.36-.02.64-.06s.49-.09.64-.14h0ZM60.5,178.43c0,.45-.14.83-.43,1.17s-.65.5-1.08.5c-.4,0-.74-.16-1.03-.47s-.43-.68-.43-1.08c0-.43.14-.8.43-1.12s.63-.48,1.03-.48c.45,0,.81.15,1.09.45s.42.65.42,1.05v-.02Z"/>
      <path class="cls-1" d="M80.76,193.37l-.18.75c-.72.29-1.3.49-1.73.6s-.8.17-1.11.17c-.63,0-1.1-.16-1.41-.49-.31-.32-.47-.72-.47-1.2,0-.17.02-.36.05-.57.03-.21.08-.45.15-.73l1.16-4.38c.09-.34.16-.64.21-.92.05-.27.08-.49.08-.66,0-.52-.11-.94-.34-1.24-.23-.31-.58-.46-1.07-.46-.52,0-1.03.12-1.53.37s-1.07.71-1.7,1.38l-2.06,8.69h-2.18l1.85-7.84c.04-.17.08-.35.11-.55.04-.19.05-.33.05-.43,0-.51-.13-.91-.38-1.2s-.62-.43-1.11-.43c-.44,0-.93.11-1.47.33s-1.16.72-1.86,1.5l-2,8.61h-2.19l1.76-7.6c.06-.27.12-.57.18-.88s.09-.58.09-.8c0-.45-.07-.75-.22-.9-.15-.14-.44-.22-.87-.22-.17,0-.39.03-.67.1s-.48.12-.63.16l.18-.76c.61-.28,1.15-.48,1.63-.61s.88-.2,1.21-.2c.63,0,1.07.17,1.34.51.26.34.4.8.42,1.39h.07c.92-.73,1.68-1.25,2.27-1.56s1.3-.47,2.12-.47c.69,0,1.26.2,1.69.6.43.4.68.91.73,1.52h.05c.83-.7,1.57-1.22,2.22-1.58s1.41-.54,2.27-.54c.75,0,1.32.22,1.72.65s.6,1,.6,1.71c0,.14-.02.39-.06.75s-.11.71-.21,1.07l-.99,3.77c-.07.25-.14.54-.2.86s-.09.58-.09.76c0,.45.09.75.28.91s.5.24.95.24c.15,0,.36-.02.65-.06s.5-.09.65-.14v.02Z"/>
      <path class="cls-1" d="M101.87,193.37l-.18.75c-.72.29-1.3.49-1.73.6s-.8.17-1.11.17c-.63,0-1.1-.16-1.41-.49-.31-.32-.47-.72-.47-1.2,0-.17.02-.36.05-.57.03-.21.08-.45.15-.73l1.16-4.38c.09-.34.16-.64.21-.92.05-.27.08-.49.08-.66,0-.52-.11-.94-.34-1.24-.23-.31-.58-.46-1.07-.46-.52,0-1.03.12-1.53.37s-1.07.71-1.7,1.38l-2.06,8.69h-2.18l1.85-7.84c.04-.17.08-.35.11-.55.04-.19.05-.33.05-.43,0-.51-.13-.91-.38-1.2s-.62-.43-1.11-.43c-.44,0-.93.11-1.47.33s-1.16.72-1.86,1.5l-2,8.61h-2.19l1.76-7.6c.06-.27.12-.57.18-.88s.09-.58.09-.8c0-.45-.07-.75-.22-.9-.15-.14-.44-.22-.87-.22-.17,0-.39.03-.67.1s-.48.12-.63.16l.18-.76c.61-.28,1.15-.48,1.63-.61s.88-.2,1.21-.2c.63,0,1.07.17,1.34.51.26.34.4.8.42,1.39h.07c.92-.73,1.68-1.25,2.27-1.56s1.3-.47,2.12-.47c.69,0,1.26.2,1.69.6.43.4.68.91.73,1.52h.05c.83-.7,1.57-1.22,2.22-1.58s1.41-.54,2.27-.54c.75,0,1.32.22,1.72.65s.6,1,.6,1.71c0,.14-.02.39-.06.75s-.11.71-.21,1.07l-.99,3.77c-.07.25-.14.54-.2.86s-.09.58-.09.76c0,.45.09.75.28.91s.5.24.95.24c.15,0,.36-.02.65-.06s.5-.09.65-.14v.02Z"/>
      <path class="cls-1" d="M113.41,185.3c0,.83-.26,1.54-.78,2.14s-1.28,1.07-2.27,1.42c-.73.27-1.46.48-2.2.65s-1.56.3-2.46.41c0,1.23.23,2.18.69,2.83s1.13.98,2.01.98c.78,0,1.47-.2,2.07-.59s1.19-.97,1.76-1.75l.67.49c-.62.95-1.41,1.71-2.34,2.29s-1.91.86-2.92.86c-1.38,0-2.44-.39-3.17-1.16s-1.1-1.87-1.1-3.3c0-.99.15-1.93.46-2.82s.76-1.71,1.35-2.46c.58-.73,1.29-1.31,2.13-1.76s1.77-.67,2.78-.67c1.12,0,1.96.23,2.5.69s.81,1.04.81,1.75h0ZM111.25,185.01c0-.3-.04-.54-.13-.72-.09-.18-.2-.31-.33-.39-.14-.09-.29-.15-.45-.18s-.32-.04-.48-.04c-.94,0-1.8.51-2.6,1.54-.79,1.03-1.29,2.31-1.51,3.85.55-.08,1.16-.19,1.85-.33.69-.14,1.26-.33,1.71-.57.65-.33,1.13-.77,1.45-1.29s.47-1.15.47-1.88h.02Z"/>
      <path class="cls-1" d="M125.06,184.77c0,.22-.03.46-.09.72s-.15.48-.27.65c-.14.21-.29.37-.46.49s-.41.17-.72.17c-.42,0-.74-.11-.95-.32s-.32-.45-.32-.7.06-.51.18-.81.24-.6.36-.9c-.09,0-.25.03-.46.08s-.47.15-.78.3c-.3.15-.65.37-1.03.67-.39.3-.8.69-1.23,1.18l-1.89,8.4h-2.19l1.71-7.6c.04-.19.1-.47.17-.84.07-.38.11-.65.11-.83,0-.44-.07-.73-.22-.88-.15-.15-.45-.22-.89-.22-.17,0-.39.03-.66.09s-.47.11-.62.15l.18-.75c.61-.27,1.15-.48,1.62-.61s.87-.2,1.21-.2c.62,0,1.07.17,1.34.51s.4.85.4,1.53h.07c.93-.81,1.63-1.37,2.12-1.69.48-.32.98-.48,1.51-.48.25,0,.49.03.73.09s.43.17.6.32c.17.16.3.35.38.57s.12.53.12.93l-.03-.02Z"/>
      <path class="cls-1" d="M129.2,195.04c-1.16,0-2.12-.21-2.89-.62s-1.15-.95-1.15-1.61c0-.31.11-.61.34-.88s.5-.41.83-.41.56.07.76.22.34.31.45.51c.12.2.22.45.31.73s.17.51.23.69c.12.13.28.26.49.37s.51.17.9.17c.84,0,1.48-.21,1.92-.63s.65-.99.65-1.71c0-.53-.2-.96-.61-1.27-.41-.32-1.01-.61-1.82-.87-.29-.09-.63-.24-1.02-.43-.39-.19-.7-.4-.94-.62-.28-.25-.51-.55-.68-.89s-.26-.75-.26-1.22c0-1,.45-1.87,1.34-2.6.89-.73,1.99-1.1,3.3-1.1.3,0,.63.02.98.05s.74.12,1.16.26c.37.12.68.31.94.56s.39.56.39.96c0,.32-.11.61-.32.87s-.5.39-.85.39c-.29,0-.53-.06-.71-.19s-.34-.29-.47-.5-.23-.44-.3-.68-.16-.48-.26-.71c-.15-.06-.28-.11-.4-.13s-.27-.04-.47-.04c-.77,0-1.35.21-1.74.62s-.59.9-.59,1.46.18.96.53,1.24c.36.28.94.57,1.76.86,1.06.38,1.83.82,2.31,1.32s.72,1.1.72,1.83c0,1.19-.46,2.16-1.37,2.91s-2.07,1.12-3.46,1.12v-.03Z"/>
      <path class="cls-1" d="M141.76,193.41l-.18.75c-.72.29-1.29.49-1.72.6s-.8.17-1.1.17c-.62,0-1.09-.16-1.41-.49-.31-.32-.47-.72-.47-1.2,0-.18.02-.37.05-.56.03-.2.08-.44.15-.74l1.24-4.99c.06-.27.12-.57.18-.88s.09-.58.09-.8c0-.44-.07-.73-.22-.87-.14-.14-.44-.22-.88-.22-.17,0-.4.03-.68.08s-.5.1-.65.14l.18-.75c.61-.27,1.16-.48,1.64-.61s.87-.2,1.15-.2c.64,0,1.1.15,1.39.46.29.3.43.71.43,1.23,0,.14-.02.33-.05.58-.03.24-.08.48-.14.73l-1.25,4.99c-.08.3-.15.6-.2.9s-.09.53-.09.72c0,.45.1.75.3.92.2.16.52.25.96.25.15,0,.36-.02.64-.06s.49-.09.64-.14h0ZM142.59,178.43c0,.45-.14.83-.43,1.17s-.65.5-1.08.5c-.4,0-.74-.16-1.03-.47s-.43-.68-.43-1.08c0-.43.14-.8.43-1.12s.63-.48,1.03-.48c.45,0,.81.15,1.09.45s.42.65.42,1.05v-.02Z"/>
      <path class="cls-1" d="M154.61,185.03c0,1.19-.18,2.4-.54,3.62s-.85,2.29-1.48,3.21c-.63.95-1.39,1.71-2.26,2.3-.88.59-1.84.89-2.88.89s-1.84-.28-2.45-.85-.91-1.33-.91-2.28c0-.18.02-.38.06-.61s.07-.38.09-.46l1.02-3.75c.08-.3.15-.6.21-.9.06-.29.09-.55.09-.77,0-.44-.08-.73-.23-.88-.15-.15-.45-.22-.9-.22-.16,0-.39.03-.67.1s-.49.12-.63.16l.18-.74c.61-.27,1.15-.48,1.62-.63.47-.15.85-.22,1.13-.22.63,0,1.09.14,1.39.43s.45.71.45,1.25c0,.16,0,.35-.04.57s-.08.47-.15.73l-1.13,4.38c-.08.3-.14.58-.18.86-.04.27-.06.45-.06.53,0,.41.06.74.19.99s.29.45.49.59c.19.13.39.23.62.28s.45.08.69.08c.53,0,1.08-.17,1.65-.5.57-.34,1.06-.77,1.48-1.31.46-.59.83-1.24,1.11-1.96s.42-1.52.42-2.4c0-.47-.06-.83-.19-1.08s-.27-.47-.43-.66c-.16-.2-.3-.4-.43-.62-.13-.22-.19-.52-.19-.91,0-.45.15-.79.45-1.02.3-.23.61-.35.94-.35.46,0,.82.19,1.08.56s.39.91.39,1.61v-.02Z"/>
      <path class="cls-1" d="M166.2,185.3c0,.83-.26,1.54-.78,2.14s-1.28,1.07-2.27,1.42c-.73.27-1.46.48-2.2.65-.74.17-1.56.3-2.46.41,0,1.23.23,2.18.69,2.83s1.13.98,2.01.98c.78,0,1.47-.2,2.07-.59s1.19-.97,1.76-1.75l.67.49c-.62.95-1.41,1.71-2.34,2.29s-1.91.86-2.92.86c-1.38,0-2.44-.39-3.17-1.16s-1.1-1.87-1.1-3.3c0-.99.15-1.93.46-2.82s.76-1.71,1.35-2.46c.58-.73,1.29-1.31,2.13-1.76.84-.45,1.77-.67,2.78-.67,1.12,0,1.96.23,2.5.69s.81,1.04.81,1.75h0ZM164.05,185.01c0-.3-.04-.54-.13-.72-.09-.18-.2-.31-.33-.39-.14-.09-.29-.15-.45-.18s-.32-.04-.48-.04c-.94,0-1.8.51-2.6,1.54-.79,1.03-1.29,2.31-1.51,3.85.55-.08,1.16-.19,1.85-.33s1.26-.33,1.71-.57c.65-.33,1.13-.77,1.45-1.29s.47-1.15.47-1.88h.02Z"/>
      <path class="cls-1" d="M180.71,193.08h-.08c-.17.15-.39.34-.67.58-.27.24-.56.45-.85.63-.37.24-.72.42-1.04.54s-.7.19-1.17.19c-1.13,0-2.02-.41-2.66-1.23-.64-.82-.97-1.93-.97-3.34,0-.99.17-1.94.52-2.85s.82-1.73,1.42-2.44c.59-.69,1.29-1.25,2.12-1.67.82-.43,1.69-.64,2.58-.64.54,0,1.07.07,1.61.21s.97.31,1.31.52l.92-3.99c.05-.21.08-.38.1-.49s.03-.25.03-.39c0-.28-.06-.5-.17-.64s-.27-.26-.47-.33c-.19-.07-.45-.12-.77-.14s-.62-.05-.89-.08l.16-.71,4.75-.26.12.18-3.25,14.05c-.06.26-.13.55-.19.88s-.1.58-.1.76c0,.45.09.75.28.91s.5.24.95.24c.15,0,.36-.02.63-.07s.48-.1.63-.15l-.18.75c-.66.3-1.2.5-1.63.62-.43.12-.83.18-1.2.18-.56,0-1.01-.15-1.34-.44-.33-.29-.5-.75-.5-1.37h0ZM182.38,185.61c-.02-.23-.07-.45-.18-.66-.1-.22-.23-.41-.39-.58-.18-.2-.41-.36-.7-.49s-.62-.19-1.01-.19c-.6,0-1.17.19-1.71.56-.54.38-1.01.88-1.41,1.5-.39.6-.7,1.33-.94,2.18-.23.85-.35,1.7-.35,2.55,0,.48.03.9.08,1.27.05.37.16.71.32,1.02.15.29.36.52.63.69s.64.25,1.09.25.9-.13,1.4-.39,1.06-.71,1.68-1.35l1.48-6.36h.01Z"/>
      <path class="cls-1" d="M192.72,193.41l-.18.75c-.72.29-1.29.49-1.72.6s-.8.17-1.1.17c-.62,0-1.09-.16-1.41-.49-.31-.32-.47-.72-.47-1.2,0-.18.02-.37.05-.56.03-.2.08-.44.15-.74l1.24-4.99c.06-.27.12-.57.18-.88s.09-.58.09-.8c0-.44-.07-.73-.22-.87-.14-.14-.44-.22-.88-.22-.17,0-.4.03-.68.08s-.5.1-.65.14l.18-.75c.61-.27,1.16-.48,1.64-.61s.87-.2,1.15-.2c.64,0,1.1.15,1.39.46.29.3.43.71.43,1.23,0,.14-.02.33-.05.58-.03.24-.08.48-.14.73l-1.25,4.99c-.08.3-.15.6-.2.9s-.09.53-.09.72c0,.45.1.75.3.92.2.16.52.25.96.25.15,0,.36-.02.64-.06s.49-.09.64-.14h0ZM193.56,178.43c0,.45-.14.83-.43,1.17s-.65.5-1.08.5c-.4,0-.74-.16-1.03-.47s-.43-.68-.43-1.08c0-.43.14-.8.43-1.12s.63-.48,1.03-.48c.45,0,.81.15,1.09.45s.42.65.42,1.05v-.02Z"/>
      <path class="cls-1" d="M206.87,193.33l-.18.75c-.71.28-1.25.49-1.65.62-.39.13-.79.19-1.19.19-.63,0-1.1-.16-1.41-.49-.31-.32-.47-.72-.47-1.2,0-.17.02-.36.05-.57s.08-.45.15-.73l1.16-4.38c.09-.34.16-.64.21-.92.05-.27.08-.49.08-.66,0-.52-.12-.94-.37-1.24-.25-.31-.62-.46-1.1-.46s-1,.16-1.59.47-1.14.77-1.66,1.36l-2,8.61h-2.19l1.76-7.6c.04-.19.1-.46.17-.82.07-.36.11-.64.11-.86,0-.44-.07-.73-.22-.88-.15-.15-.45-.22-.89-.22-.17,0-.39.03-.66.09s-.48.11-.62.15l.18-.75c.61-.27,1.15-.48,1.63-.61s.88-.2,1.21-.2c.62,0,1.06.17,1.33.5.27.34.41.8.42,1.4h.07c.86-.69,1.6-1.2,2.22-1.53s1.33-.5,2.12-.5,1.33.22,1.75.65.63,1,.63,1.71c0,.14-.02.39-.06.75s-.11.71-.21,1.07l-.99,3.77c-.07.25-.14.54-.21.86s-.1.58-.1.76c0,.45.1.75.29.91.2.16.52.24.96.24.15,0,.36-.03.64-.08s.49-.1.64-.16h0Z"/>
      <path class="cls-1" d="M221.02,193.33l-.18.75c-.71.28-1.25.49-1.65.62-.39.13-.79.19-1.19.19-.63,0-1.1-.16-1.41-.49-.31-.32-.47-.72-.47-1.2,0-.17.02-.36.05-.57s.08-.45.15-.73l1.16-4.38c.09-.34.16-.64.21-.92.05-.27.08-.49.08-.66,0-.52-.12-.94-.37-1.24-.25-.31-.62-.46-1.1-.46s-1,.16-1.59.47-1.14.77-1.66,1.36l-2,8.61h-2.19l1.76-7.6c.04-.19.1-.46.17-.82.07-.36.11-.64.11-.86,0-.44-.07-.73-.22-.88-.15-.15-.45-.22-.89-.22-.17,0-.39.03-.66.09s-.48.11-.62.15l.18-.75c.61-.27,1.15-.48,1.63-.61s.88-.2,1.21-.2c.62,0,1.06.17,1.33.5.27.34.41.8.42,1.4h.07c.86-.69,1.6-1.2,2.22-1.53s1.33-.5,2.12-.5,1.33.22,1.75.65.63,1,.63,1.71c0,.14-.02.39-.06.75s-.11.71-.21,1.07l-.99,3.77c-.07.25-.14.54-.21.86s-.1.58-.1.76c0,.45.1.75.29.91.2.16.52.24.96.24.15,0,.36-.03.64-.08s.49-.1.64-.16h0Z"/>
      <path class="cls-1" d="M232.57,185.3c0,.83-.26,1.54-.78,2.14s-1.28,1.07-2.27,1.42c-.73.27-1.46.48-2.2.65-.74.17-1.56.3-2.46.41,0,1.23.23,2.18.69,2.83s1.13.98,2.01.98c.78,0,1.47-.2,2.07-.59s1.19-.97,1.76-1.75l.67.49c-.62.95-1.41,1.71-2.34,2.29s-1.91.86-2.92.86c-1.38,0-2.44-.39-3.17-1.16s-1.1-1.87-1.1-3.3c0-.99.15-1.93.46-2.82s.76-1.71,1.35-2.46c.58-.73,1.29-1.31,2.13-1.76.84-.45,1.77-.67,2.78-.67,1.12,0,1.96.23,2.5.69s.81,1.04.81,1.75h0ZM230.41,185.01c0-.3-.04-.54-.13-.72-.09-.18-.2-.31-.33-.39-.14-.09-.29-.15-.45-.18s-.32-.04-.48-.04c-.94,0-1.8.51-2.6,1.54-.79,1.03-1.29,2.31-1.51,3.85.55-.08,1.16-.19,1.85-.33s1.26-.33,1.71-.57c.65-.33,1.13-.77,1.45-1.29s.47-1.15.47-1.88h.02Z"/>
      <path class="cls-1" d="M244.22,184.77c0,.22-.03.46-.09.72s-.15.48-.27.65c-.14.21-.29.37-.46.49s-.41.17-.72.17c-.42,0-.74-.11-.95-.32s-.32-.45-.32-.7.06-.51.18-.81.24-.6.36-.9c-.09,0-.25.03-.46.08s-.47.15-.78.3c-.3.15-.65.37-1.04.67-.38.3-.8.69-1.23,1.18l-1.89,8.4h-2.19l1.71-7.6c.04-.19.1-.47.17-.84.07-.38.11-.65.11-.83,0-.44-.07-.73-.22-.88-.15-.15-.45-.22-.89-.22-.17,0-.39.03-.66.09s-.47.11-.62.15l.18-.75c.61-.27,1.15-.48,1.62-.61s.87-.2,1.21-.2c.63,0,1.07.17,1.33.51.27.34.4.85.4,1.53h.07c.93-.81,1.64-1.37,2.12-1.69s.98-.48,1.51-.48c.25,0,.49.03.73.09s.43.17.6.32c.17.16.3.35.38.57s.12.53.12.93v-.02Z"/>
      <path class="cls-1" d="M260.75,185.3c0,.83-.26,1.54-.78,2.14s-1.28,1.07-2.27,1.42c-.73.27-1.46.48-2.2.65-.74.17-1.56.3-2.46.41,0,1.23.23,2.18.69,2.83s1.13.98,2.01.98c.78,0,1.47-.2,2.07-.59.6-.39,1.19-.97,1.76-1.75l.67.49c-.62.95-1.41,1.71-2.34,2.29s-1.91.86-2.92.86c-1.38,0-2.44-.39-3.17-1.16s-1.1-1.87-1.1-3.3c0-.99.15-1.93.46-2.82s.76-1.71,1.35-2.46c.58-.73,1.29-1.31,2.13-1.76.84-.45,1.77-.67,2.78-.67,1.12,0,1.96.23,2.5.69s.81,1.04.81,1.75h0ZM258.59,185.01c0-.3-.04-.54-.13-.72-.09-.18-.2-.31-.33-.39-.14-.09-.29-.15-.45-.18s-.32-.04-.48-.04c-.94,0-1.8.51-2.6,1.54-.79,1.03-1.29,2.31-1.51,3.85.55-.08,1.16-.19,1.85-.33s1.26-.33,1.71-.57c.65-.33,1.13-.77,1.45-1.29s.47-1.15.47-1.88h.02Z"/>
      <path class="cls-1" d="M273.75,184.16c0,.45-.17.79-.5,1s-.68.32-1.06.32c-.23,0-.5-.04-.8-.12s-.53-.15-.7-.21c-.35.31-.76.77-1.22,1.38s-.9,1.28-1.32,2.02c.19.74.35,1.38.5,1.9s.31,1.06.48,1.59c.15.48.38.86.7,1.14s.73.43,1.25.43c.19,0,.45-.03.77-.08.33-.05.58-.11.76-.18l-.21.78c-.75.31-1.31.52-1.69.61s-.79.14-1.22.14c-.55,0-1-.12-1.35-.38s-.64-.77-.86-1.55c-.16-.57-.28-1.05-.38-1.44s-.19-.77-.29-1.15c-.36.54-.66,1-.89,1.38s-.62.9-1.17,1.56c-.48.58-.91.99-1.31,1.23s-.8.36-1.22.36c-.37,0-.67-.11-.91-.32s-.36-.51-.36-.9.14-.68.42-.94c.28-.26.67-.39,1.16-.39.25,0,.49.04.73.13.24.09.49.17.74.25.3-.28.69-.72,1.18-1.31s.94-1.27,1.36-2.03c-.15-.55-.31-1.16-.48-1.83s-.34-1.25-.5-1.75c-.2-.63-.44-1.03-.7-1.21s-.61-.27-1.02-.27c-.23,0-.47.03-.72.09s-.49.12-.71.19l.22-.78c.6-.25,1.14-.46,1.62-.62s.81-.24.98-.24c.54,0,.99.13,1.34.39s.64.77.85,1.52c.24.87.38,1.4.43,1.59s.13.57.25,1.13c.38-.58.68-1.07.91-1.46s.62-.93,1.15-1.58c.49-.62.95-1.04,1.37-1.27s.82-.35,1.2-.35c.34,0,.63.11.87.33s.35.51.35.86v.04Z"/>
      <path class="cls-1" d="M286.3,187.34c0,1.05-.18,2.04-.55,2.98s-.85,1.75-1.46,2.44c-.68.76-1.41,1.32-2.21,1.69-.79.37-1.61.55-2.44.55-.67,0-1.22-.08-1.65-.25-.43-.16-.81-.37-1.15-.61l-.68,3.07c-.05.2-.08.38-.11.55s-.04.31-.04.41c0,.21.08.38.23.5s.33.21.52.27c.2.06.41.11.66.14s.46.05.66.07l-.16.74h-6.46l.16-.74c.25-.02.48-.04.7-.06s.43-.06.62-.12c.24-.07.44-.2.58-.39.14-.19.25-.43.31-.71l2.45-10.79c.06-.3.12-.6.18-.9.05-.3.08-.56.08-.78,0-.44-.07-.73-.21-.88s-.43-.22-.88-.22c-.17,0-.39.03-.66.1s-.47.12-.62.16l.18-.75c.59-.27,1.13-.47,1.61-.62s.88-.22,1.22-.22c.55,0,.96.14,1.24.42s.46.66.53,1.16h.09c.53-.49,1.1-.9,1.71-1.22s1.21-.48,1.81-.48c1.19,0,2.11.41,2.77,1.21.66.81.99,1.9.99,3.27h-.02ZM282.64,192.18c.4-.64.7-1.37.92-2.19s.32-1.68.32-2.6c0-.42-.04-.83-.11-1.25-.07-.42-.19-.76-.36-1.04-.17-.3-.41-.54-.7-.71s-.69-.25-1.17-.25c-.36,0-.75.11-1.19.33-.43.22-.96.63-1.59,1.23l-1.5,6.65c.05.45.29.86.72,1.25.42.39.94.58,1.54.58s1.19-.18,1.73-.54,1-.85,1.38-1.47h0Z"/>
      <path class="cls-1" d="M297.97,185.3c0,.83-.26,1.54-.78,2.14s-1.28,1.07-2.27,1.42c-.73.27-1.46.48-2.2.65-.74.17-1.56.3-2.46.41,0,1.23.23,2.18.69,2.83s1.13.98,2.01.98c.78,0,1.47-.2,2.07-.59s1.19-.97,1.76-1.75l.67.49c-.62.95-1.41,1.71-2.34,2.29s-1.91.86-2.92.86c-1.38,0-2.44-.39-3.17-1.16s-1.1-1.87-1.1-3.3c0-.99.15-1.93.46-2.82s.76-1.71,1.35-2.46c.58-.73,1.29-1.31,2.13-1.76s1.77-.67,2.78-.67c1.12,0,1.96.23,2.5.69s.81,1.04.81,1.75h0ZM295.81,185.01c0-.3-.04-.54-.13-.72-.09-.18-.2-.31-.33-.39-.14-.09-.29-.15-.45-.18s-.32-.04-.48-.04c-.94,0-1.8.51-2.6,1.54-.79,1.03-1.29,2.31-1.51,3.85.55-.08,1.16-.19,1.85-.33s1.26-.33,1.71-.57c.65-.33,1.13-.77,1.45-1.29s.47-1.15.47-1.88h.02Z"/>
      <path class="cls-1" d="M309.62,184.77c0,.22-.03.46-.09.72s-.15.48-.27.65c-.14.21-.29.37-.46.49s-.41.17-.72.17c-.42,0-.74-.11-.95-.32s-.32-.45-.32-.7.06-.51.18-.81.24-.6.36-.9c-.09,0-.25.03-.46.08s-.47.15-.78.3c-.3.15-.65.37-1.03.67-.39.3-.8.69-1.23,1.18l-1.89,8.4h-2.19l1.71-7.6c.04-.19.1-.47.17-.84.07-.38.11-.65.11-.83,0-.44-.07-.73-.22-.88-.15-.15-.44-.22-.89-.22-.17,0-.39.03-.66.09-.26.06-.47.11-.62.15l.18-.75c.61-.27,1.15-.48,1.62-.61s.87-.2,1.21-.2c.62,0,1.07.17,1.33.51.27.34.4.85.4,1.53h.07c.93-.81,1.64-1.37,2.12-1.69.48-.32.98-.48,1.51-.48.25,0,.49.03.73.09s.43.17.6.32c.17.16.3.35.38.57s.12.53.12.93l-.02-.02Z"/>
      <path class="cls-1" d="M315.97,193.41l-.18.75c-.72.29-1.29.49-1.72.6s-.8.17-1.1.17c-.62,0-1.09-.16-1.41-.49-.31-.32-.47-.72-.47-1.2,0-.18.02-.37.05-.56.03-.2.08-.44.15-.74l1.24-4.99c.06-.27.12-.57.18-.88s.09-.58.09-.8c0-.44-.07-.73-.22-.87-.14-.14-.44-.22-.88-.22-.17,0-.4.03-.68.08-.29.05-.5.1-.65.14l.18-.75c.61-.27,1.16-.48,1.64-.61s.87-.2,1.15-.2c.64,0,1.1.15,1.39.46.29.3.43.71.43,1.23,0,.14-.02.33-.05.58-.03.24-.08.48-.14.73l-1.25,4.99c-.08.3-.15.6-.2.9s-.09.53-.09.72c0,.45.1.75.3.92.2.16.52.25.96.25.15,0,.36-.02.64-.06s.49-.09.64-.14h0ZM316.8,178.43c0,.45-.14.83-.43,1.17s-.65.5-1.08.5c-.4,0-.74-.16-1.03-.47s-.43-.68-.43-1.08c0-.43.14-.8.43-1.12s.63-.48,1.03-.48c.45,0,.81.15,1.09.45s.42.65.42,1.05v-.02Z"/>
      <path class="cls-1" d="M327.5,185.3c0,.83-.26,1.54-.78,2.14s-1.28,1.07-2.27,1.42c-.73.27-1.46.48-2.2.65-.74.17-1.56.3-2.46.41,0,1.23.23,2.18.69,2.83s1.13.98,2.01.98c.78,0,1.47-.2,2.07-.59s1.19-.97,1.76-1.75l.67.49c-.62.95-1.41,1.71-2.34,2.29s-1.91.86-2.92.86c-1.38,0-2.44-.39-3.17-1.16s-1.1-1.87-1.1-3.3c0-.99.15-1.93.46-2.82s.76-1.71,1.35-2.46c.58-.73,1.29-1.31,2.13-1.76s1.77-.67,2.78-.67c1.12,0,1.96.23,2.5.69s.81,1.04.81,1.75h0ZM325.34,185.01c0-.3-.04-.54-.13-.72-.09-.18-.2-.31-.33-.39-.14-.09-.29-.15-.45-.18s-.32-.04-.48-.04c-.94,0-1.8.51-2.6,1.54-.79,1.03-1.29,2.31-1.51,3.85.55-.08,1.16-.19,1.85-.33s1.26-.33,1.71-.57c.65-.33,1.13-.77,1.45-1.29s.47-1.15.47-1.88h.02Z"/>
      <path class="cls-1" d="M341.43,193.33l-.18.75c-.71.28-1.25.49-1.65.62-.39.13-.79.19-1.19.19-.63,0-1.1-.16-1.41-.49-.31-.32-.47-.72-.47-1.2,0-.17.01-.36.05-.57.03-.21.08-.45.15-.73l1.16-4.38c.09-.34.16-.64.21-.92.05-.27.08-.49.08-.66,0-.52-.12-.94-.37-1.24-.25-.31-.62-.46-1.1-.46s-1,.16-1.59.47-1.14.77-1.66,1.36l-2,8.61h-2.19l1.76-7.6c.04-.19.1-.46.17-.82s.11-.64.11-.86c0-.44-.08-.73-.22-.88-.15-.15-.45-.22-.89-.22-.17,0-.39.03-.66.09s-.47.11-.62.15l.18-.75c.61-.27,1.15-.48,1.63-.61.47-.13.88-.2,1.21-.2.62,0,1.06.17,1.33.5.27.34.41.8.42,1.4h.07c.86-.69,1.59-1.2,2.22-1.53.62-.33,1.33-.5,2.12-.5s1.33.22,1.75.65.63,1,.63,1.71c0,.14-.02.39-.06.75s-.11.71-.21,1.07l-.99,3.77c-.07.25-.14.54-.21.86s-.1.58-.1.76c0,.45.1.75.29.91.2.16.52.24.96.24.15,0,.36-.03.64-.08.28-.05.49-.1.64-.16h-.01Z"/>
      <path class="cls-1" d="M347.34,195.02c-1.37,0-2.45-.4-3.24-1.2s-1.19-1.93-1.19-3.4c0-.98.15-1.91.45-2.81s.72-1.69,1.26-2.39,1.22-1.26,2.04-1.71c.82-.44,1.74-.66,2.75-.66,1.12,0,1.97.24,2.55.71s.87,1.07.87,1.79c0,.54-.13,1.01-.38,1.42s-.63.61-1.14.61c-.42,0-.74-.11-.95-.32s-.32-.44-.32-.7.08-.59.25-1.02c.17-.43.3-.78.4-1.05-.09-.21-.28-.36-.57-.46-.3-.1-.61-.15-.93-.15-1.06,0-1.98.62-2.75,1.86s-1.15,2.76-1.15,4.55c0,1.11.25,1.99.75,2.64s1.17.98,2.01.98c.76,0,1.43-.2,2.02-.61s1.16-.98,1.7-1.72l.67.49c-.54.85-1.27,1.59-2.2,2.21s-1.9.93-2.91.93h.01Z"/>
    </g>
    <path class="cls-1" d="M363.86,185.3c0,.83-.26,1.54-.78,2.14s-1.28,1.07-2.27,1.42c-.73.27-1.46.48-2.2.65-.74.17-1.56.3-2.46.41,0,1.23.23,2.18.69,2.83s1.13.98,2.01.98c.78,0,1.47-.2,2.07-.59s1.19-.97,1.76-1.75l.67.49c-.62.95-1.41,1.71-2.34,2.29s-1.91.86-2.92.86c-1.38,0-2.44-.39-3.17-1.16s-1.1-1.87-1.1-3.3c0-.99.15-1.93.46-2.82s.76-1.71,1.35-2.46c.58-.73,1.29-1.31,2.13-1.76s1.77-.67,2.78-.67c1.12,0,1.96.23,2.5.69s.81,1.04.81,1.75h0ZM361.71,185.01c0-.3-.04-.54-.13-.72-.09-.18-.2-.31-.33-.39-.14-.09-.29-.15-.45-.18s-.32-.04-.48-.04c-.94,0-1.8.51-2.6,1.54-.79,1.03-1.29,2.31-1.51,3.85.55-.08,1.16-.19,1.85-.33s1.26-.33,1.71-.57c.65-.33,1.13-.77,1.45-1.29s.47-1.15.47-1.88h.02Z"/>
  </g>
  <text class="cls-2" transform="translate(16.39 63.52)"><tspan x="0" y="0">Digesting </tspan><tspan x="-8.24" y="102">the Future</tspan></text>
</svg>